<svg version="1.2" xmlns="http://www.w3.org/2000/svg" viewBox="0 0 574 662" width="574" height="662">
	<title>Mokery</title>
	<style>
		.s0 { fill: #ffffff } 
	</style>
	<g id="Layer_1" style="opacity: .3">
	</g>
	<g id="Layer_2">
		<g id="Layer">
			<g id="Layer">
				<path id="Layer" class="s0" d="m451.5 547.8c2.1-0.4 4.1-1.4 6.1-2.1 8.8-1.5 13.3-10.3 11.2-18.5-0.9-4.7-3.8-10.3-9.2-12.1-4.5-1.9-11.3 0.3-13.3 5-2.5 5.2 0 9.8 0.5 14.9 0.1 2.7-2.8 5.8-2.6 8.8-0.1 3.7 4 4.9 7.3 4z"/>
			</g>
			<g id="Layer">
				<path id="Layer" class="s0" d="m5.9 430.3c-2.8 0.9-4.2 2.8-4.2 2.8-1 1.3-1.6 3-1.6 4.8v99.7c0 51.4 42.1 93.5 93.5 93.5h162.1c22 15.1 46.4 27.1 73.3 29.8 26.2 2.5 52-3.4 75.7-14.3 8.4-4.4 19.5-10 22.6-20 2.7 2.2 5.5 4.4 8.4 6.5 20.9 15.3 61.6 20.2 78.9-2.8 1.7-2.3 3.2-4.9 4.6-7.6 32.2-14.8 54.7-47.4 54.7-85v-387c0-51.4-42.1-93.5-93.5-93.5h-231.6c-26.6-31.5-62.2-58-102.7-56.7l-3.6 0.2h-0.2l-0.4 0.1c-5.6 0.9-11.1 2.3-16.2 4-33.1 10.8-58 33.5-73.2 62.1-31.1 15.2-52.5 47.1-52.5 83.8v1.2c0 5.4 4 9.9 9.4 10.7 4.1 0.6 8.4 1 12.6 1.3 7 0.5 13 5.3 15.1 12.1 5.6 18.6 12.7 36.6 16.4 55.9 0.1 0.7 1.2 0.6 1.2-0.1 0.1-6.9-0.3-13.9-0.9-20.8-0.5-6.3-1.3-12.8-2-19.2-2.9-26.2-0.5-52.9 8.1-77.9 1.4-4.2 3-8.3 4.8-12.4 14-34.5 45-62.9 81.1-70.4 35.6-2.6 68.8 25 94.3 48.6 10.7 10.1 21 21 30.7 32.1 1.1 1.3 2.4 2.4 4.2 2.7 68.8 9.7 128.1 45.5 154.7 111.3 1.4 4.4 2.6 8.8 3.6 13.3 2.5 11.1 4.1 22.6 4.2 34.1 0 1.2 1.7 1.3 1.9 0.2 1.1-5.8 1.8-11.7 2.3-17.6 0.5-7.1 0.6-14.3 0.3-21.4 1.2 0.3 2.6 0.7 2.6 0.7 4.3 1.3 8.8 3.2 12.8 5.3 15.3 8.5 25 22.7 30.2 39.2 7.4 24.4 6.5 51.6 1.7 76.5-0.4 1.7 0 3.6 1.2 5.1 11.4 14.7 19.7 31.7 23.4 49.6 3.7 16.1 2.1 40 2.4 56.7-0.1 19.4 0 38.8-0.4 58.1-0.4 19.3-1.1 38.6-3.5 57.3-1.9 13.1-3.9 26.6-11.5 37-10 13.8-34.2 8.6-47 3.4-11.3-4.6-18.3-11.6-29.2-22.9-9.6-9.9-11.2-14.2-22.8-28.2-9.5-11.6-17.2-19.4-25.2-27.4-23.2-23.4-43.3-38.9-66.9-57-10.4-8-16.1-12-20.9-15.3-10.5-7.1-24.3-14.8-35.3-21.3-14.8-9.2-30.2-19.3-43.5-30.5-17.3-14.3-36.3-32.8-43.5-54.3l-0.7-2.8-0.6-3.1c-4.8-22.4-11.5-44.4-18-66.3-1.4-4.2-7.3-2.4-6.6 1.6 2.2 12.6 11.4 58 12.5 70.1 0.6 3.6 1.7 7.6 3 11.1 6.9 18.4 19.3 33.3 32.9 46.8 4.4 4.5 10.9 10.1 15.6 14.2 12.2 10.1 26.2 19.9 39.6 28.4 6.6 3.9 17 10.1 23.4 14.1 7.3 4.4 15 9.7 21.9 14.8 4 3 7.5 5.6 10.6 8 46 36 70.5 55.2 91.1 85.6 3.9 5.8 9.4 14.6 15.1 26.1 2.1 4.3 0.5 9.6-3.8 11.9l-5.9 3.2c-3.3 1.8-11.4 5.2-25.7 9-26.6 7.1-53.9 4.5-78.9-7.8-16.8-8-32.3-19-47-30.6-30.4-24.1-59.4-49.9-88.1-75.9 0-0.1-116.4-105.9-151.1-94.5z"/>
			</g>
			<g id="Layer">
				<path id="Layer" fill-rule="evenodd" class="s0" d="m233 168.8c49.1-41.1 126.9-23.4 152.2 36.7 16.9 39.2 4.5 86.3-28.4 113.4-33.1 27.2-81.3 30.3-116.7 6.2-54.1-36.1-56.8-115.9-7.1-156.3zm-24.7 90.8c17.5 56.1 86.7 76.8 131.9 39.1 45.5-37.3 38.4-109.1-13.4-136.9-23.8-13.1-53.6-12.9-77.5-0.7 0.1 0 0.2-0.1 0.3-0.1 0.1 0 0.1 0 0.1 0 7.5-2.9 15.6-4.5 24.1-4.5 36.8 0 66.6 29.8 66.6 66.5 0 36.8-29.8 66.6-66.6 66.6-36.7 0-66.5-29.9-66.5-66.6 0-4.7 0.5-9.2 1.4-13.6-5.2 16.2-5.6 33.9-0.4 50.2zm16.4-63.2c0-1.1 0.1-2.3 0.3-3.4-2.7 5.4-4.3 11.6-4.3 18.2 0 22.4 18.3 40.7 40.7 40.7 22.4 0 40.7-18.3 40.7-40.7 0-22.4-18.3-40.7-40.7-40.7-4 0-7.9 0.6-11.6 1.7 13 0.4 23.4 11.1 23.4 24.2 0 13.3-10.8 24.2-24.2 24.2-13.3 0-24.2-10.9-24.3-24.2z"/>
			</g>
		</g>
	</g>
</svg>